<svg width="34" height="25" viewBox="0 0 34 25" fill="none" xmlns="http://www.w3.org/2000/svg">
<path d="M30.8125 4.4187H3.1875C2.5998 4.4187 2.125 4.75106 2.125 5.16245V20.0375C2.125 20.4488 2.5998 20.7812 3.1875 20.7812H30.8125C31.4002 20.7812 31.875 20.4488 31.875 20.0375V5.16245C31.875 4.75106 31.4002 4.4187 30.8125 4.4187ZM28.1297 6.94978L17.6541 12.6557C17.3951 12.7975 17.0332 12.7975 16.7742 12.6557L6.29531 6.94978C6.25581 6.92844 6.22684 6.89898 6.21245 6.86553C6.19807 6.83209 6.199 6.79633 6.21511 6.76327C6.23121 6.73021 6.26169 6.70151 6.30228 6.68119C6.34286 6.66087 6.39151 6.64995 6.44141 6.64995H27.9836C28.0335 6.64995 28.0821 6.66087 28.1227 6.68119C28.1633 6.70151 28.1938 6.73021 28.2099 6.76327C28.226 6.79633 28.2269 6.83209 28.2125 6.86553C28.1982 6.89898 28.1692 6.92844 28.1297 6.94978Z" fill="#868484"/>
</svg>
