<svg width="33" height="32" viewBox="0 0 33 32" fill="none" xmlns="http://www.w3.org/2000/svg">
<ellipse cx="16.2551" cy="15.8995" rx="16.0483" ry="15.4572" fill="#0D1117"/>
<path d="M5.2998 21.6055L10.4033 10.1797H11.749L6.64551 21.6055H5.2998ZM15.0308 20.5264C14.7261 20.5264 14.4256 20.5137 14.1294 20.4883C13.8332 20.4671 13.5327 20.4375 13.228 20.3994L13.7485 19.168C13.9728 19.2738 14.2204 19.3372 14.4912 19.3584C14.762 19.3753 15.0308 19.3838 15.2974 19.3838C16.1056 19.3838 16.7298 19.1405 17.1699 18.6538C17.6143 18.1672 17.8364 17.4795 17.8364 16.5908C17.8364 15.9814 17.701 15.5117 17.4302 15.1816C17.1636 14.8516 16.7827 14.6865 16.2876 14.6865C15.145 14.6865 14.5737 15.3298 14.5737 16.6162L14.1802 14.8896H14.7007C14.7642 13.9925 15.3143 13.5439 16.3511 13.5439C17.2482 13.5439 17.9422 13.8084 18.4331 14.3374C18.924 14.8664 19.1694 15.6175 19.1694 16.5908C19.1694 17.8392 18.8076 18.8083 18.084 19.498C17.3646 20.1836 16.3468 20.5264 15.0308 20.5264ZM13.228 20.3994V10.8779H14.5737V20.2852L13.228 20.3994ZM22.3623 20.3994V14.2422C22.3623 11.9147 23.4245 10.751 25.5488 10.751C26.0312 10.751 26.4967 10.7933 26.9453 10.8779L26.8057 12.0459C26.5391 12.012 26.3042 11.9888 26.1011 11.9761C25.8979 11.9634 25.7012 11.957 25.5107 11.957C24.3089 11.957 23.708 12.6976 23.708 14.1787V20.3994H22.3623ZM20.2422 16.2988V15.1943H26.4629V16.2988H20.2422Z" fill="#88FF6A"/>
</svg>
