<svg width="34" height="33" viewBox="0 0 34 33" fill="none" xmlns="http://www.w3.org/2000/svg">
<path fill-rule="evenodd" clip-rule="evenodd" d="M17 0C7.6075 0 0 7.22712 0 16.15C0 23.2964 4.86625 29.3324 11.6237 31.4723C12.4737 31.6136 12.7925 31.1291 12.7925 30.7052C12.7925 30.3216 12.7712 29.0498 12.7712 27.6972C8.5 28.4442 7.395 26.7081 7.055 25.7996C6.86375 25.3353 6.035 23.902 5.3125 23.5184C4.7175 23.2156 3.8675 22.4687 5.29125 22.4485C6.63 22.4283 7.58625 23.6194 7.905 24.1039C9.435 26.5466 11.8787 25.8602 12.8562 25.4362C13.005 24.3865 13.4513 23.6799 13.94 23.2762C10.1575 22.8724 6.205 21.4795 6.205 15.3021C6.205 13.5458 6.86375 12.0923 7.9475 10.9618C7.7775 10.5581 7.1825 8.90269 8.1175 6.68206C8.1175 6.68206 9.54125 6.25812 12.7925 8.33744C14.1525 7.97406 15.5975 7.79237 17.0425 7.79237C18.4875 7.79237 19.9325 7.97406 21.2925 8.33744C24.5437 6.23794 25.9675 6.68206 25.9675 6.68206C26.9025 8.90269 26.3075 10.5581 26.1375 10.9618C27.2213 12.0923 27.88 13.5256 27.88 15.3021C27.88 21.4997 23.9062 22.8724 20.1237 23.2762C20.74 23.7809 21.2712 24.7499 21.2712 26.2639C21.2712 28.424 21.25 30.1601 21.25 30.7052C21.25 31.1291 21.5687 31.6338 22.4187 31.4723C25.7935 30.3899 28.726 28.3294 30.8035 25.5807C32.881 22.8321 33.999 19.5338 34 16.15C34 7.22712 26.3925 0 17 0Z" fill="#868484"/>
</svg>
