<svg width="28" height="28" viewBox="0 0 28 28" fill="none" xmlns="http://www.w3.org/2000/svg">
<g clip-path="url(#clip0_1604_60)">
<path d="M14 0C10.3093 0 9.84522 0.017 8.39512 0.0816C6.94502 0.1496 5.95732 0.3774 5.09202 0.714C4.18438 1.05539 3.36226 1.5909 2.68312 2.2831C1.99135 2.96258 1.45591 3.78461 1.11402 4.692C0.777424 5.5556 0.547924 6.545 0.481624 7.99C0.417024 9.4435 0.400024 9.9059 0.400024 13.6017C0.400024 17.2941 0.417024 17.7565 0.481624 19.2066C0.549624 20.655 0.777424 21.6427 1.11402 22.508C1.46252 23.4022 1.92662 24.1604 2.68312 24.9169C3.43792 25.6734 4.19612 26.1392 5.09032 26.486C5.95732 26.8226 6.94333 27.0521 8.39173 27.1184C9.84352 27.183 10.3059 27.2 14 27.2C17.6941 27.2 18.1548 27.183 19.6066 27.1184C21.0533 27.0504 22.0444 26.8226 22.9097 26.486C23.8168 26.1444 24.6383 25.6089 25.3169 24.9169C26.0734 24.1604 26.5375 23.4022 26.886 22.508C27.2209 21.6427 27.4504 20.655 27.5184 19.2066C27.583 17.7565 27.6 17.2941 27.6 13.6C27.6 9.9059 27.583 9.4435 27.5184 7.9917C27.4504 6.545 27.2209 5.5556 26.886 4.692C26.5442 3.78458 26.0087 2.96255 25.3169 2.2831C24.638 1.59065 23.8158 1.0551 22.908 0.714C22.041 0.3774 21.0516 0.1479 19.6049 0.0816C18.1531 0.017 17.6924 0 13.9966 0H14.0017H14ZM12.7811 2.4514H14.0017C17.6329 2.4514 18.063 2.4633 19.4961 2.5296C20.8221 2.5891 21.5429 2.8118 22.0223 2.9971C22.6564 3.2436 23.1103 3.5394 23.5863 4.0154C24.0623 4.4914 24.3564 4.9436 24.6029 5.5794C24.7899 6.0571 25.0109 6.7779 25.0704 8.1039C25.1367 9.537 25.1503 9.9671 25.1503 13.5966C25.1503 17.2261 25.1367 17.6579 25.0704 19.091C25.0109 20.417 24.7882 21.1361 24.6029 21.6155C24.3849 22.206 24.0369 22.7399 23.5846 23.1778C23.1086 23.6538 22.6564 23.9479 22.0206 24.1944C21.5446 24.3814 20.8238 24.6024 19.4961 24.6636C18.063 24.7282 17.6329 24.7435 14.0017 24.7435C10.3705 24.7435 9.93872 24.7282 8.50562 24.6636C7.17963 24.6024 6.46052 24.3814 5.98112 24.1944C5.39037 23.9767 4.85594 23.6293 4.41712 23.1778C3.9645 22.7393 3.61595 22.2048 3.39712 21.6138C3.21182 21.1361 2.98912 20.4153 2.92962 19.0893C2.86502 17.6562 2.85142 17.2261 2.85142 13.5932C2.85142 9.962 2.86502 9.5336 2.92962 8.1005C2.99082 6.7745 3.21182 6.0537 3.39882 5.5743C3.64532 4.9402 3.94112 4.4863 4.41712 4.0103C4.89312 3.5343 5.34532 3.2402 5.98112 2.9937C6.46052 2.8067 7.17963 2.5857 8.50562 2.5245C9.76023 2.4667 10.2464 2.4497 12.7811 2.448V2.4514ZM21.2607 4.709C21.0464 4.709 20.8342 4.75121 20.6362 4.83323C20.4382 4.91524 20.2583 5.03546 20.1067 5.187C19.9552 5.33855 19.835 5.51846 19.753 5.71646C19.6709 5.91446 19.6287 6.12668 19.6287 6.341C19.6287 6.55532 19.6709 6.76754 19.753 6.96554C19.835 7.16354 19.9552 7.34345 20.1067 7.495C20.2583 7.64654 20.4382 7.76676 20.6362 7.84877C20.8342 7.93079 21.0464 7.973 21.2607 7.973C21.6936 7.973 22.1087 7.80106 22.4147 7.495C22.7208 7.18894 22.8927 6.77383 22.8927 6.341C22.8927 5.90817 22.7208 5.49306 22.4147 5.187C22.1087 4.88094 21.6936 4.709 21.2607 4.709ZM14.0017 6.6164C13.0753 6.60195 12.1553 6.77193 11.2953 7.11644C10.4352 7.46095 9.6523 7.97312 8.99208 8.62312C8.33186 9.27312 7.80754 10.048 7.44965 10.9025C7.09177 11.7571 6.90746 12.6744 6.90746 13.6009C6.90746 14.5273 7.09177 15.4446 7.44965 16.2992C7.80754 17.1537 8.33186 17.9286 8.99208 18.5786C9.6523 19.2286 10.4352 19.7407 11.2953 20.0853C12.1553 20.4298 13.0753 20.5998 14.0017 20.5853C15.8352 20.5567 17.584 19.8083 18.8705 18.5015C20.157 17.1948 20.8781 15.4346 20.8781 13.6009C20.8781 11.7671 20.157 10.0069 18.8705 8.70017C17.584 7.39345 15.8352 6.64501 14.0017 6.6164ZM14.0017 9.0661C15.2042 9.0661 16.3574 9.54378 17.2077 10.394C18.0579 11.2443 18.5356 12.3975 18.5356 13.6C18.5356 14.8025 18.0579 15.9557 17.2077 16.806C16.3574 17.6562 15.2042 18.1339 14.0017 18.1339C12.7993 18.1339 11.646 17.6562 10.7958 16.806C9.9455 15.9557 9.46782 14.8025 9.46782 13.6C9.46782 12.3975 9.9455 11.2443 10.7958 10.394C11.646 9.54378 12.7993 9.0661 14.0017 9.0661Z" fill="#868484"/>
</g>
<defs>
<clipPath id="clip0_1604_60">
<rect width="27.2" height="27.2" fill="white" transform="translate(0.400024)"/>
</clipPath>
</defs>
</svg>
