<svg width="32" height="31" viewBox="0 0 32 31" fill="none" xmlns="http://www.w3.org/2000/svg">
<path fill-rule="evenodd" clip-rule="evenodd" d="M1.97498 3.61836C1.97498 2.99683 2.22187 2.40077 2.66136 1.96129C3.10084 1.5218 3.6969 1.27491 4.31843 1.27491H27.679C27.987 1.2744 28.2921 1.33466 28.5768 1.45222C28.8614 1.56978 29.1202 1.74233 29.3381 1.96001C29.556 2.17769 29.7288 2.43621 29.8467 2.72077C29.9646 3.00533 30.0251 3.31035 30.025 3.61836V26.9789C30.0253 27.287 29.9649 27.5921 29.8472 27.8768C29.7295 28.1615 29.5568 28.4202 29.339 28.6381C29.1213 28.856 28.8627 29.0288 28.578 29.1466C28.2934 29.2645 27.9883 29.3251 27.6802 29.3249H4.31843C4.01057 29.3249 3.70574 29.2642 3.42133 29.1464C3.13693 29.0285 2.87853 28.8558 2.66091 28.6381C2.44328 28.4203 2.27069 28.1618 2.15299 27.8774C2.0353 27.5929 1.97481 27.288 1.97498 26.9802V3.61836ZM13.0777 11.9696H16.8759V13.877C17.4242 12.7805 18.8267 11.7937 20.9342 11.7937C24.9747 11.7937 25.9322 13.9777 25.9322 17.9851V25.4081H21.8433V18.898C21.8433 16.6157 21.295 15.328 19.9028 15.328C17.9711 15.328 17.1679 16.7164 17.1679 18.898V25.4081H13.0777V11.9696ZM6.06518 25.2334H10.1554V11.7937H6.06518V25.2322V25.2334ZM10.7406 7.4102C10.7483 7.76041 10.686 8.10863 10.5573 8.43443C10.4286 8.76023 10.2361 9.05704 9.9912 9.30745C9.74624 9.55785 9.45374 9.75681 9.13086 9.89264C8.80797 10.0285 8.46121 10.0984 8.11091 10.0984C7.76062 10.0984 7.41386 10.0285 7.09097 9.89264C6.76809 9.75681 6.47558 9.55785 6.23063 9.30745C5.98568 9.05704 5.79321 8.76023 5.66452 8.43443C5.53583 8.10863 5.47351 7.76041 5.48123 7.4102C5.49636 6.72279 5.78007 6.06864 6.27158 5.58783C6.76309 5.10702 7.42334 4.83779 8.11091 4.83779C8.79849 4.83779 9.45873 5.10702 9.95025 5.58783C10.4418 6.06864 10.7255 6.72279 10.7406 7.4102Z" fill="#868484"/>
</svg>
